<svg xmlns="http://www.w3.org/2000/svg" xmlns:xlink="http://www.w3.org/1999/xlink" width="200" zoomAndPan="magnify" viewBox="0 0 150 187.499995" height="250" preserveAspectRatio="xMidYMid meet" version="1.0"><defs><clipPath id="64b622a5ad"><path d="M 0.199219 29.070312 L 72 29.070312 L 72 154.445312 L 0.199219 154.445312 Z M 0.199219 29.070312 " clip-rule="nonzero"/></clipPath><clipPath id="c5d64bf1ef"><path d="M 78 29.070312 L 149.800781 29.070312 L 149.800781 154.445312 L 78 154.445312 Z M 78 29.070312 " clip-rule="nonzero"/></clipPath></defs><g clip-path="url(#64b622a5ad)"><path fill="#ffffff" d="M 61.441406 70.117188 C 43.617188 54.054688 9.761719 47.742188 9.457031 47.691406 L 9.550781 43.289062 C 10.890625 43.511719 42.515625 49.164062 61.441406 65.039062 Z M 61.441406 85.355469 C 43.617188 69.292969 9.761719 62.980469 9.457031 62.929688 L 9.550781 58.511719 C 10.890625 58.75 42.515625 64.402344 61.441406 80.273438 Z M 61.441406 100.578125 C 43.617188 84.53125 9.761719 78.21875 9.457031 78.152344 L 9.550781 73.75 C 10.890625 73.976562 42.515625 79.636719 61.441406 95.511719 Z M 61.441406 115.816406 C 43.617188 99.769531 9.761719 93.445312 9.457031 93.390625 L 9.550781 88.988281 C 10.890625 89.214844 42.515625 94.875 61.441406 110.75 Z M 61.441406 131.054688 C 43.617188 114.992188 9.761719 108.679688 9.457031 108.628906 L 9.550781 104.210938 C 10.890625 104.449219 42.515625 110.101562 61.441406 125.972656 Z M 0.199219 29.070312 L 0.199219 125.074219 C 40.125 125.074219 71.8125 154.445312 71.8125 154.445312 C 71.8125 154.445312 71.8125 100.578125 71.8125 69.226562 C 71.8125 37.890625 0.199219 29.070312 0.199219 29.070312 " fill-opacity="1" fill-rule="nonzero"/></g><g clip-path="url(#c5d64bf1ef)"><path fill="#ffffff" d="M 88.652344 115.605469 L 88.652344 110.539062 C 107.578125 94.648438 139.203125 89 140.53125 88.777344 L 140.636719 93.179688 C 140.332031 93.246094 106.476562 99.542969 88.652344 115.605469 Z M 88.652344 130.839844 L 88.652344 125.761719 C 107.578125 109.886719 139.203125 104.238281 140.53125 104 L 140.636719 108.414062 C 140.332031 108.46875 106.476562 114.78125 88.652344 130.839844 Z M 89.582031 69.148438 C 89.582031 48.355469 137.089844 42.503906 137.089844 42.503906 L 137.089844 80.289062 C 110.566406 82.992188 89.582031 99.597656 89.582031 99.597656 C 89.582031 99.597656 89.582031 89.941406 89.582031 69.148438 Z M 78.1875 69.226562 C 78.1875 100.578125 78.1875 154.445312 78.1875 154.445312 C 78.1875 154.445312 109.875 125.074219 149.800781 125.074219 L 149.800781 29.070312 C 149.800781 29.070312 78.1875 37.890625 78.1875 69.226562 " fill-opacity="1" fill-rule="nonzero"/></g></svg>