<svg xmlns="http://www.w3.org/2000/svg" xmlns:xlink="http://www.w3.org/1999/xlink" width="200" zoomAndPan="magnify" viewBox="0 0 150 187.499995" height="250" preserveAspectRatio="xMidYMid meet" version="1.0"><defs><clipPath id="dd66821815"><path d="M 0.199219 42.167969 L 149.800781 42.167969 L 149.800781 144.644531 L 0.199219 144.644531 Z M 0.199219 42.167969 " clip-rule="nonzero"/></clipPath></defs><g clip-path="url(#dd66821815)"><path stroke-linecap="butt" transform="matrix(0.167478, 0, 0, 0.167172, 9.310287, 43.319111)" fill-opacity="1" fill="#ffffff" fill-rule="nonzero" stroke-linejoin="miter" d="M 98.323986 266.549858 L 150.173296 253.604769 L 58.346605 145.557666 L 186.908638 172.569442 L 186.908638 149.880485 L 234.443003 170.396349 L 233.370098 80.738751 L 300.356701 140.159984 L 334.922908 10.498788 L 378.142328 149.880485 L 404.078645 78.565659 L 426.749599 141.234847 L 471.065248 -6.769121 L 489.421257 130.439484 L 536.955622 99.104889 L 540.197662 153.128441 L 607.184265 92.608978 L 607.184265 168.246623 L 749.787361 89.384389 L 665.517654 206.053762 L 717.390289 203.904036 L 695.768916 262.22704 L 838.395336 287.089089 L 686.042797 331.39214 L 735.746297 382.167735 L 666.59056 405.931555 C 666.59056 405.931555 728.189313 521.526066 723.851044 521.526066 C 719.536099 521.526066 632.024353 479.396108 632.024353 479.396108 L 654.71863 605.809348 L 566.110655 479.396108 L 556.40786 532.344796 L 511.019305 485.868653 L 500.220281 578.797573 L 453.758821 495.589153 L 429.991638 528.021977 L 401.909511 488.041745 L 339.237852 570.151935 L 328.438828 496.687383 L 247.411161 523.699158 L 252.799012 463.179696 C 252.799012 463.179696 151.246202 556.108616 152.319107 549.612705 C 153.415336 543.14016 179.328329 416.726919 179.328329 416.726919 L 98.300662 437.26615 C 98.300662 437.26615 160.972321 367.026186 155.561146 364.87646 C 150.173296 362.703368 -54.028553 342.187504 -54.028553 342.187504 C -54.028553 342.187504 145.835028 296.80959 141.520083 294.636497 C 137.205138 292.486771 95.058623 268.722951 98.300662 266.549858 Z M 98.323986 266.549858 " stroke="#000000" stroke-width="1" stroke-opacity="1" stroke-miterlimit="4"/></g><path stroke-linecap="butt" transform="matrix(0.167478, 0, 0, 0.167172, 9.310287, 43.319111)" fill-opacity="1" fill="#ffffff" fill-rule="nonzero" stroke-linejoin="miter" d="M 237.218562 200.843013 C 218.745933 200.749547 195.211991 204.978899 165.847042 215.236831 L 222.571074 431.868468 C 278.292172 404.880059 317.546508 330.667776 251.189654 295.71136 C 301.896087 281.784874 317.243296 201.170145 237.218562 200.819647 Z M 205.824423 241.150377 L 246.874709 241.150377 C 252.635743 247.435989 254.455017 255.871328 245.428619 267.204123 C 241.253619 272.484972 238.734624 271.456842 233.370098 274.658064 C 208.856546 289.308915 198.873863 245.917161 205.824423 241.150377 Z M 238.991188 337.000121 C 267.003343 335.948625 267.819684 378.499181 235.842445 378.078583 L 223.084202 341.39304 C 229.101801 338.518949 234.419679 337.163687 238.991188 337.000121 Z M 238.991188 337.000121 " stroke="#ffffff" stroke-width="1" stroke-opacity="1" stroke-miterlimit="4"/><path stroke-linecap="butt" transform="matrix(0.167478, 0, 0, 0.167172, 9.310287, 43.319111)" fill-opacity="1" fill="#ffffff" fill-rule="nonzero" stroke-linejoin="miter" d="M 332.217321 221.195311 C 315.027513 292.206372 305.138126 368.708581 293.312845 443.738695 L 312.251954 452.384332 C 320.438687 456.122986 323.237571 438.15408 326.293018 431.30767 C 328.228912 425.138891 332.847069 424.274327 337.628495 423.760262 L 347.354614 425.372557 C 353.348888 427.054951 357.897073 426.727819 360.835901 439.439242 L 366.247075 460.492538 L 394.352526 461.02997 C 394.702387 455.95942 395.495404 450.888871 394.982275 445.935154 C 387.285346 372.120103 363.634784 301.996972 350.060201 229.280151 L 332.217321 221.171945 Z M 341.593579 343.285733 C 344.952239 343.192267 348.334223 346.977654 348.963971 355.15596 C 349.150564 357.375786 354.561738 383.63983 356.007827 385.929756 C 359.226543 391.047039 355.914531 396.748486 352.742464 396.748486 L 339.261177 396.748486 C 328.39218 396.748486 331.937432 390.603074 332.217321 386.467188 L 334.386455 354.618528 C 334.87626 347.328153 338.234919 343.355833 341.593579 343.285733 Z M 341.593579 343.285733 " stroke="#ffffff" stroke-width="1" stroke-opacity="1" stroke-miterlimit="4"/><path stroke-linecap="butt" transform="matrix(0.167478, 0, 0, 0.167172, 9.310287, 43.319111)" fill-opacity="1" fill="#ffffff" fill-rule="nonzero" stroke-linejoin="miter" d="M 375.973194 183.364805 L 433.233678 408.081281 L 455.391503 411.329237 C 454.691782 407.730783 465.327538 411.142304 460.312872 397.262551 C 457.677257 362.609901 443.939406 318.727449 433.233678 277.368589 L 490.494162 398.360781 C 490.494162 398.360781 512.791931 407.684049 517.503384 404.856692 C 524.593888 400.603973 531.287884 189.954183 530.471543 189.83735 C 522.797938 188.038123 518.343049 184.673334 507.427405 184.276102 L 499.147376 192.547874 L 496.978241 322.746502 L 420.265519 182.289942 C 405.15155 180.817847 389.734369 177.967124 375.973194 183.364805 Z M 375.973194 183.364805 " stroke="#ffffff" stroke-width="1" stroke-opacity="1" stroke-miterlimit="4"/><path stroke-linecap="butt" transform="matrix(0.167478, 0, 0, 0.167172, 9.310287, 43.319111)" fill-opacity="1" fill="#ffffff" fill-rule="nonzero" stroke-linejoin="miter" d="M 627.592788 295.64126 C 637.108991 292.486771 650.240417 295.384228 655.861508 285.710461 C 666.264023 257.553722 588.968201 167.311959 551.952971 276.550758 C 514.937742 385.789557 597.36485 505.449853 635.616253 398.781379 C 641.91374 381.209705 645.925472 343.776431 645.925472 343.776431 L 603.522393 343.402566 L 601.236638 359.829277 C 606.764433 362.306136 609.81988 362.843567 613.458428 372.050003 C 614.321417 432.429266 561.609118 402.706966 571.685097 315.128995 C 577.142919 267.484522 619.219462 230.425113 627.592788 295.64126 Z M 627.592788 295.64126 " stroke="#ffffff" stroke-width="1" stroke-opacity="1" stroke-miterlimit="4"/></svg>