<svg xmlns="http://www.w3.org/2000/svg" xmlns:xlink="http://www.w3.org/1999/xlink" width="200" zoomAndPan="magnify" viewBox="0 0 150 187.499995" height="250" preserveAspectRatio="xMidYMid meet" version="1.0"><defs><clipPath id="189bff4e67"><path d="M 0.199219 22.371094 L 149.800781 22.371094 L 149.800781 164.492188 L 0.199219 164.492188 Z M 0.199219 22.371094 " clip-rule="nonzero"/></clipPath></defs><g clip-path="url(#189bff4e67)"><path fill="#ffffff" d="M 75 22.371094 L 94.261719 65.640625 C 95.003906 67.300781 96.167969 68.738281 97.640625 69.808594 C 99.113281 70.875 100.839844 71.539062 102.652344 71.730469 L 149.789062 76.660156 L 114.554688 108.332031 C 113.203125 109.550781 112.195312 111.101562 111.632812 112.832031 C 111.070312 114.5625 110.972656 116.410156 111.351562 118.1875 L 121.222656 164.503906 L 80.183594 140.8125 C 78.609375 139.902344 76.820312 139.421875 75 139.421875 C 73.179688 139.421875 71.390625 139.902344 69.816406 140.8125 L 28.777344 164.503906 L 38.648438 118.1875 C 39.027344 116.410156 38.929688 114.5625 38.367188 112.832031 C 37.804688 111.101562 36.796875 109.550781 35.445312 108.332031 L 0.210938 76.660156 L 47.347656 71.730469 C 49.160156 71.539062 50.886719 70.875 52.359375 69.808594 C 53.832031 68.738281 55 67.300781 55.738281 65.640625 Z M 75 22.371094 " fill-opacity="1" fill-rule="evenodd"/></g></svg>