<svg xmlns="http://www.w3.org/2000/svg" xmlns:xlink="http://www.w3.org/1999/xlink" width="200" zoomAndPan="magnify" viewBox="0 0 150 187.499995" height="250" preserveAspectRatio="xMidYMid meet" version="1.0"><defs><clipPath id="7f3018fa1d"><path d="M 22 48 L 128 48 L 128 164.09375 L 22 164.09375 Z M 22 48 " clip-rule="nonzero"/></clipPath><clipPath id="bfa41247c4"><path d="M 0.199219 22.71875 L 149.800781 22.71875 L 149.800781 98 L 0.199219 98 Z M 0.199219 22.71875 " clip-rule="nonzero"/></clipPath></defs><g clip-path="url(#7f3018fa1d)"><path fill="#ffffff" d="M 127.519531 94.582031 Z M 127.519531 94.582031 L 75.015625 48.144531 L 22.480469 94.601562 L 22.480469 160.984375 C 22.480469 162.699219 23.867188 164.074219 25.585938 164.074219 L 58.417969 164.074219 L 58.417969 134.96875 C 58.417969 133.253906 59.792969 131.867188 61.511719 131.867188 L 88.488281 131.867188 C 90.203125 131.867188 91.582031 133.253906 91.582031 134.96875 L 91.582031 164.074219 L 124.425781 164.074219 C 126.140625 164.074219 127.519531 162.699219 127.519531 160.984375 L 127.519531 94.578125 Z M 22.480469 94.601562 Z M 22.480469 94.601562 " fill-opacity="1" fill-rule="nonzero"/></g><g clip-path="url(#bfa41247c4)"><path fill="#ffffff" d="M 74.710938 22.730469 L 0.199219 88.617188 L 8.046875 97.460938 L 75.015625 38.242188 L 141.96875 97.460938 L 149.800781 88.617188 L 75.304688 22.730469 L 75.015625 23.066406 Z M 74.710938 22.730469 " fill-opacity="1" fill-rule="nonzero"/></g><path fill="#ffffff" d="M 22.480469 32.214844 L 41.367188 32.214844 L 41.203125 43.386719 L 22.480469 60.28125 Z M 22.480469 32.214844 " fill-opacity="1" fill-rule="nonzero"/></svg>