<svg xmlns="http://www.w3.org/2000/svg" xmlns:xlink="http://www.w3.org/1999/xlink" width="200" zoomAndPan="magnify" viewBox="0 0 150 187.499995" height="250" preserveAspectRatio="xMidYMid meet" version="1.0"><defs><clipPath id="5dcdbd3c48"><path d="M 0.332031 16.4375 L 149.183594 16.4375 L 149.183594 184 L 0.332031 184 Z M 0.332031 16.4375 " clip-rule="nonzero"/></clipPath></defs><g clip-path="url(#5dcdbd3c48)"><path fill="#ffffff" d="M 71.222656 93.035156 L 78.671875 93.035156 C 79.542969 93.035156 80.261719 93.6875 80.261719 94.484375 L 80.261719 101.0625 C 80.261719 101.859375 79.542969 102.507812 78.671875 102.507812 L 71.222656 102.507812 C 70.347656 102.507812 69.632812 101.859375 69.632812 101.0625 L 69.632812 94.484375 C 69.632812 93.6875 70.347656 93.035156 71.222656 93.035156 Z M 48.964844 39.449219 C 41.671875 36.519531 30.761719 39.335938 25.875 46.265625 C 22.929688 50.441406 22.167969 55.523438 22.910156 59.351562 C 23.28125 61.257812 24.253906 62.777344 24.125 64.804688 C 23.792969 63.738281 23.296875 62.855469 22.695312 62.007812 C 21.582031 62.875 19.628906 64.800781 18.679688 68.140625 C 17.800781 71.242188 17.949219 74.683594 19.152344 77.804688 C 18.511719 77.015625 17.707031 75.765625 17.171875 73.59375 C 14.246094 74.941406 5.640625 79.699219 3.777344 89.753906 C 2.195312 98.304688 3.695312 102.59375 2.96875 108.027344 C 2.484375 111.664062 1.210938 110.660156 0.347656 115.910156 C 0.347656 115.910156 5.171875 123.875 4.421875 139.160156 C 8.820312 138.835938 18.6875 136.46875 22.871094 140.128906 C 22.871094 140.128906 34.027344 135.824219 29.523438 129.148438 C 29.523438 129.148438 32.957031 127.644531 33.8125 126.242188 C 33.8125 126.242188 33.742188 117.015625 27.074219 112.5 C 23.304688 109.945312 19.921875 110.085938 15.652344 111.355469 C 17.128906 110.457031 18.714844 109.492188 22.167969 109.367188 C 22.515625 107.316406 23.0625 103.542969 27.484375 99.550781 C 31.910156 95.554688 35.289062 93.585938 35.164062 87.816406 C 31.273438 87.800781 29.835938 86.734375 29.453125 86.417969 C 35.253906 87.695312 39.417969 85.820312 42.621094 80.464844 C 40.875 77.277344 39.480469 73.574219 38.789062 70.011719 C 38.449219 68.238281 38.246094 66.4375 38.199219 64.660156 C 38.964844 70.640625 41.25 75.898438 42.917969 78.554688 C 49.011719 88.242188 56.988281 90.707031 67.222656 93.277344 C 64.34375 92.890625 61.464844 92.285156 58.699219 91.421875 C 58.699219 94.058594 58.699219 96.699219 58.699219 99.335938 C 61.128906 100.347656 64.566406 101.058594 68.335938 101.460938 C 64.800781 101.332031 61.292969 100.710938 58.398438 99.945312 C 55.675781 104.898438 41.105469 120.90625 48.078125 133.671875 C 48.078125 133.671875 46.902344 135.449219 46.117188 138.542969 C 45.777344 139.890625 45.507812 141.492188 45.441406 143.304688 C 46.019531 144.128906 46.867188 145.117188 48.429688 146.078125 C 47.082031 145.648438 46.042969 145.132812 45.429688 144.535156 C 45.441406 145.625 45.53125 146.660156 45.722656 147.878906 C 47.0625 156.488281 47.4375 162.625 47.542969 165.53125 C 47.542969 165.53125 45.078125 171.34375 41.75 173.820312 C 38.425781 176.296875 38.855469 177.480469 39.175781 181.136719 C 39.175781 181.136719 42.824219 184.691406 47.117188 183.722656 C 51.40625 182.753906 53.875 177.371094 58.484375 173.386719 C 58.484375 173.386719 58.914062 167.144531 56.125 164.886719 C 56.125 164.886719 54.445312 158.109375 60.09375 150.679688 C 60.675781 149.914062 61.011719 149.328125 61.34375 148.597656 C 58.550781 148.75 55.078125 148.210938 51.988281 147.234375 C 54.851562 147.785156 58.828125 147.964844 61.738281 147.460938 C 62.839844 143.535156 60.683594 140.226562 59.664062 139.375 C 59.664062 139.375 71.089844 129.792969 73.269531 114.96875 C 74.441406 115.148438 75.566406 115.09375 76.625 114.933594 C 78.792969 129.777344 90.230469 139.375 90.230469 139.375 C 89.210938 140.226562 87.058594 143.535156 88.160156 147.460938 C 91.066406 147.964844 95.042969 147.785156 97.902344 147.234375 C 94.816406 148.210938 91.347656 148.75 88.554688 148.597656 C 88.886719 149.328125 89.21875 149.914062 89.800781 150.679688 C 95.449219 158.109375 93.769531 164.886719 93.769531 164.886719 C 90.980469 167.144531 91.410156 173.386719 91.410156 173.386719 C 96.019531 177.371094 98.488281 182.753906 102.777344 183.722656 C 107.066406 184.691406 110.714844 181.136719 110.714844 181.136719 C 111.035156 177.480469 111.464844 176.296875 108.140625 173.820312 C 104.816406 171.34375 102.347656 165.53125 102.347656 165.53125 C 102.457031 162.625 102.832031 156.488281 104.171875 147.878906 C 104.363281 146.660156 104.453125 145.625 104.460938 144.535156 C 103.847656 145.132812 102.808594 145.648438 101.464844 146.078125 C 103.023438 145.117188 103.871094 144.128906 104.449219 143.304688 C 104.386719 141.492188 104.117188 139.890625 103.773438 138.542969 C 102.988281 135.449219 101.8125 133.671875 101.8125 133.671875 C 108.78125 120.917969 94.238281 104.917969 91.5 99.953125 C 89.4375 100.5 87.070312 100.96875 84.601562 101.238281 C 87.332031 100.820312 89.652344 100.191406 91.195312 99.335938 C 91.195312 96.699219 91.195312 94.058594 91.195312 91.421875 C 88.800781 92.355469 85.582031 93.078125 81.910156 93.476562 C 92.515625 90.832031 100.722656 88.496094 106.972656 78.554688 C 108.285156 76.46875 109.976562 72.773438 111.011719 68.386719 C 110.933594 68.929688 110.84375 69.472656 110.738281 70.011719 C 110.050781 73.574219 108.652344 77.277344 106.910156 80.464844 C 110.113281 85.820312 114.273438 87.695312 120.078125 86.417969 C 119.695312 86.734375 118.253906 87.800781 114.367188 87.816406 C 114.242188 93.585938 117.621094 95.554688 122.042969 99.550781 C 126.464844 103.542969 127.011719 107.316406 127.363281 109.367188 C 130.816406 109.492188 132.398438 110.457031 133.878906 111.355469 C 129.609375 110.085938 126.226562 109.945312 122.453125 112.5 C 115.789062 117.015625 115.714844 126.242188 115.714844 126.242188 C 116.574219 127.644531 120.003906 129.148438 120.003906 129.148438 C 115.5 135.824219 126.65625 140.128906 126.65625 140.128906 C 130.839844 136.46875 140.707031 138.835938 145.105469 139.160156 C 144.355469 123.875 149.179688 115.910156 149.179688 115.910156 C 148.316406 110.660156 147.042969 111.664062 146.558594 108.027344 C 145.832031 102.59375 147.332031 98.304688 145.75 89.753906 C 143.886719 79.699219 135.28125 74.941406 132.355469 73.59375 C 131.824219 75.765625 131.019531 77.015625 130.375 77.804688 C 131.582031 74.683594 131.730469 71.242188 130.847656 68.140625 C 129.898438 64.800781 127.949219 62.875 126.835938 62.007812 C 126.230469 62.855469 125.734375 63.738281 125.402344 64.804688 C 125.273438 62.777344 126.25 61.257812 126.617188 59.351562 C 127.363281 55.523438 126.597656 50.441406 123.652344 46.265625 C 118.765625 39.335938 107.859375 36.519531 100.566406 39.449219 C 101.257812 40.066406 102.433594 41.050781 103.902344 43.046875 C 103.679688 42.863281 103.445312 42.679688 103.207031 42.5 C 97.972656 38.550781 92.839844 35.347656 85.785156 33.753906 C 86.007812 34.921875 86.269531 35.300781 86.328125 35.988281 C 86.441406 37.386719 85.261719 39.589844 83.417969 41.515625 C 82.664062 42.304688 81.253906 44.648438 80.109375 46.199219 C 80.996094 44.523438 81.886719 42.40625 82.859375 41.308594 C 85.191406 38.691406 85.164062 36.304688 85.164062 36.304688 C 84.734375 35.035156 84.421875 33.859375 84.183594 32.769531 C 85.953125 32.992188 86.15625 29.566406 84.855469 28.300781 C 85.503906 27.578125 85.300781 26.769531 84.980469 26.078125 C 86.214844 25.550781 86.050781 24.433594 85.570312 23.578125 C 86.5625 22.824219 85.972656 21.425781 85.113281 21.316406 C 85.429688 19.6875 83.535156 18.207031 82.40625 19.242188 C 82.21875 17.574219 80.207031 17.980469 80.046875 18.382812 C 79.457031 17.089844 78.113281 16.578125 77.472656 17.953125 C 76.988281 16.472656 75.808594 16.796875 75.324219 17.925781 C 74.496094 16.523438 72.671875 17.46875 72.753906 18.222656 C 71.519531 17.117188 70.417969 18.195312 70.5 18.707031 C 69.023438 17.550781 67.628906 19.054688 67.953125 19.703125 C 66.019531 18.949219 65.324219 20.644531 65.671875 21.183594 C 63.851562 20.988281 63.191406 23.730469 64.761719 24.519531 C 63.792969 25.753906 64.761719 26.96875 65.296875 26.9375 C 65.261719 27.363281 65.378906 27.683594 65.523438 27.90625 C 65.46875 27.921875 65.414062 27.941406 65.359375 27.964844 C 63.492188 28.773438 63.574219 33.246094 65.695312 32.738281 C 65.457031 33.839844 65.140625 35.023438 64.707031 36.304688 C 64.707031 36.304688 64.683594 38.691406 67.011719 41.308594 C 67.980469 42.398438 68.863281 44.496094 69.746094 46.164062 C 68.605469 44.617188 67.210938 42.296875 66.464844 41.515625 C 64.617188 39.589844 63.4375 37.386719 63.554688 35.988281 C 63.609375 35.308594 63.863281 34.933594 64.085938 33.804688 C 57.070312 35.421875 51.859375 38.597656 46.683594 42.5 C 46.109375 42.9375 45.570312 43.386719 45.058594 43.851562 C 46.792969 41.304688 48.183594 40.148438 48.964844 39.449219 " fill-opacity="1" fill-rule="evenodd"/></g><path fill="#cf181f" d="M 71.300781 93.648438 L 78.59375 93.648438 C 79.164062 93.648438 79.628906 94.113281 79.628906 94.683594 L 79.628906 100.914062 C 79.628906 101.484375 79.164062 101.949219 78.59375 101.949219 L 71.300781 101.949219 C 70.734375 101.949219 70.269531 101.484375 70.269531 100.914062 L 70.269531 94.683594 C 70.269531 94.113281 70.734375 93.648438 71.300781 93.648438 " fill-opacity="1" fill-rule="evenodd"/></svg>