<svg xmlns="http://www.w3.org/2000/svg" xmlns:xlink="http://www.w3.org/1999/xlink" width="200" zoomAndPan="magnify" viewBox="0 0 150 187.499995" height="250" preserveAspectRatio="xMidYMid meet" version="1.0"><path fill="#ffffff" d="M 37.214844 116.28125 L 4.203125 149.289062 C 0.0585938 153.433594 0.0585938 160.15625 4.203125 164.296875 C 8.34375 168.4375 15.066406 168.4375 19.207031 164.296875 L 52.21875 131.289062 Z M 37.214844 116.28125 " fill-opacity="1" fill-rule="nonzero"/><path fill="#ffffff" d="M 130.074219 38.425781 C 110.355469 18.714844 78.28125 18.714844 58.570312 38.425781 C 40.617188 56.367188 39.0625 84.519531 53.78125 104.3125 L 43.867188 114.226562 L 54.28125 124.628906 L 64.195312 114.714844 C 83.972656 129.4375 112.128906 127.882812 130.074219 109.933594 C 149.792969 90.222656 149.792969 58.144531 130.074219 38.425781 Z M 122.542969 102.40625 C 106.976562 117.976562 81.652344 117.976562 66.089844 102.40625 C 50.523438 86.84375 50.523438 61.519531 66.089844 45.953125 C 81.65625 30.390625 106.980469 30.390625 122.542969 45.953125 C 138.109375 61.523438 138.109375 86.84375 122.542969 102.40625 Z M 122.542969 102.40625 " fill-opacity="1" fill-rule="nonzero"/><path fill="#ffffff" d="M 114.332031 43.796875 C 102.199219 35.789062 86.5 35.773438 74.359375 43.769531 C 73.132812 44.582031 72.785156 46.230469 73.59375 47.453125 C 73.695312 47.605469 73.8125 47.75 73.933594 47.871094 C 74.8125 48.746094 76.207031 48.917969 77.277344 48.210938 C 87.652344 41.390625 101.039062 41.402344 111.402344 48.238281 C 112.628906 49.054688 114.28125 48.710938 115.085938 47.488281 C 115.890625 46.265625 115.566406 44.613281 114.332031 43.796875 Z M 114.332031 43.796875 " fill-opacity="1" fill-rule="nonzero"/></svg>