<svg xmlns="http://www.w3.org/2000/svg" xmlns:xlink="http://www.w3.org/1999/xlink" width="200" zoomAndPan="magnify" viewBox="0 0 150 187.499995" height="250" preserveAspectRatio="xMidYMid meet" version="1.0"><defs><clipPath id="6c526f1a5f"><path d="M 0.875 20.648438 L 148.980469 20.648438 L 148.980469 158.28125 L 0.875 158.28125 Z M 0.875 20.648438 " clip-rule="nonzero"/></clipPath></defs><path fill="#ffffff" d="M 131.652344 141.074219 L 131.652344 23.105469 L 18.203125 23.105469 L 18.203125 155.820312 L 131.652344 155.820312 Z M 74.925781 126.328125 C 73.714844 126.328125 72.507812 126.269531 71.300781 126.152344 C 70.09375 126.035156 68.898438 125.855469 67.710938 125.621094 C 66.523438 125.386719 65.347656 125.09375 64.1875 124.742188 C 63.027344 124.390625 61.890625 123.984375 60.769531 123.523438 C 59.652344 123.0625 58.558594 122.546875 57.488281 121.976562 C 56.417969 121.40625 55.382812 120.785156 54.375 120.117188 C 53.367188 119.445312 52.394531 118.726562 51.457031 117.960938 C 50.523438 117.195312 49.625 116.386719 48.769531 115.53125 C 47.910156 114.675781 47.097656 113.785156 46.332031 112.851562 C 45.5625 111.917969 44.839844 110.949219 44.167969 109.945312 C 43.496094 108.941406 42.871094 107.90625 42.300781 106.84375 C 41.730469 105.777344 41.210938 104.6875 40.75 103.570312 C 40.285156 102.457031 39.878906 101.320312 39.527344 100.164062 C 39.175781 99.007812 38.878906 97.839844 38.644531 96.65625 C 38.40625 95.472656 38.230469 94.277344 38.109375 93.078125 C 37.992188 91.875 37.933594 90.671875 37.933594 89.464844 C 37.933594 88.257812 37.992188 87.050781 38.109375 85.851562 C 38.230469 84.648438 38.40625 83.457031 38.644531 82.269531 C 38.878906 81.085938 39.175781 79.917969 39.527344 78.761719 C 39.878906 77.605469 40.285156 76.472656 40.75 75.355469 C 41.210938 74.238281 41.730469 73.148438 42.300781 72.085938 C 42.871094 71.019531 43.496094 69.984375 44.167969 68.980469 C 44.839844 67.976562 45.5625 67.007812 46.332031 66.074219 C 47.097656 65.140625 47.910156 64.25 48.769531 63.394531 C 49.625 62.542969 50.523438 61.730469 51.457031 60.964844 C 52.394531 60.199219 53.367188 59.480469 54.375 58.808594 C 55.382812 58.140625 56.417969 57.519531 57.488281 56.949219 C 58.558594 56.382812 59.652344 55.867188 60.769531 55.402344 C 61.890625 54.941406 63.027344 54.535156 64.1875 54.183594 C 65.347656 53.835938 66.523438 53.542969 67.710938 53.304688 C 68.898438 53.070312 70.09375 52.894531 71.300781 52.773438 C 72.507812 52.65625 73.714844 52.597656 74.925781 52.597656 C 76.140625 52.597656 77.347656 52.65625 78.554688 52.773438 C 79.757812 52.894531 80.957031 53.070312 82.144531 53.304688 C 83.332031 53.542969 84.507812 53.835938 85.664062 54.183594 C 86.824219 54.535156 87.964844 54.941406 89.085938 55.402344 C 90.203125 55.867188 91.296875 56.382812 92.367188 56.949219 C 93.433594 57.519531 94.472656 58.140625 95.480469 58.808594 C 96.488281 59.480469 97.460938 60.199219 98.394531 60.964844 C 99.332031 61.730469 100.230469 62.542969 101.085938 63.394531 C 101.941406 64.25 102.753906 65.140625 103.523438 66.074219 C 104.292969 67.007812 105.011719 67.976562 105.6875 68.980469 C 106.359375 69.984375 106.980469 71.019531 107.554688 72.085938 C 108.125 73.148438 108.640625 74.238281 109.105469 75.355469 C 109.570312 76.472656 109.976562 77.605469 110.328125 78.761719 C 110.679688 79.917969 110.972656 81.085938 111.210938 82.269531 C 111.445312 83.457031 111.625 84.648438 111.742188 85.851562 C 111.863281 87.050781 111.921875 88.257812 111.921875 89.464844 C 111.921875 90.671875 111.859375 91.875 111.742188 93.078125 C 111.621094 94.277344 111.445312 95.46875 111.207031 96.65625 C 110.972656 97.839844 110.675781 99.007812 110.324219 100.164062 C 109.972656 101.320312 109.566406 102.453125 109.101562 103.570312 C 108.636719 104.683594 108.121094 105.773438 107.550781 106.839844 C 106.976562 107.902344 106.355469 108.9375 105.683594 109.941406 C 105.007812 110.945312 104.289062 111.914062 103.519531 112.847656 C 102.75 113.78125 101.9375 114.675781 101.082031 115.527344 C 100.226562 116.382812 99.328125 117.191406 98.394531 117.957031 C 97.457031 118.722656 96.484375 119.441406 95.476562 120.113281 C 94.46875 120.785156 93.433594 121.402344 92.363281 121.972656 C 91.296875 122.542969 90.203125 123.058594 89.082031 123.519531 C 87.964844 123.980469 86.824219 124.386719 85.664062 124.738281 C 84.503906 125.089844 83.332031 125.382812 82.144531 125.617188 C 80.957031 125.855469 79.757812 126.03125 78.554688 126.152344 C 77.347656 126.269531 76.136719 126.328125 74.925781 126.328125 Z M 74.925781 126.328125 " fill-opacity="1" fill-rule="nonzero"/><path fill="#ffffff" d="M 67.527344 104.210938 L 87.257812 89.464844 L 67.527344 77.175781 Z M 67.527344 104.210938 " fill-opacity="1" fill-rule="nonzero"/><g clip-path="url(#6c526f1a5f)"><path fill="#ffffff" d="M 146.449219 20.648438 L 3.40625 20.648438 C 3.078125 20.648438 2.761719 20.710938 2.460938 20.832031 C 2.160156 20.957031 1.894531 21.136719 1.660156 21.367188 C 1.429688 21.597656 1.25 21.863281 1.125 22.164062 C 1 22.464844 0.9375 22.777344 0.9375 23.105469 L 0.9375 155.820312 C 0.9375 156.148438 1 156.460938 1.125 156.761719 C 1.25 157.0625 1.429688 157.328125 1.660156 157.558594 C 1.894531 157.789062 2.160156 157.96875 2.460938 158.09375 C 2.761719 158.21875 3.078125 158.28125 3.40625 158.28125 L 146.449219 158.28125 C 146.777344 158.28125 147.089844 158.21875 147.394531 158.09375 C 147.695312 157.96875 147.960938 157.789062 148.191406 157.558594 C 148.425781 157.328125 148.601562 157.0625 148.726562 156.761719 C 148.851562 156.460938 148.914062 156.148438 148.914062 155.820312 L 148.914062 23.105469 C 148.914062 22.777344 148.851562 22.464844 148.726562 22.164062 C 148.601562 21.863281 148.425781 21.597656 148.191406 21.367188 C 147.960938 21.136719 147.695312 20.957031 147.394531 20.832031 C 147.089844 20.710938 146.777344 20.648438 146.449219 20.648438 Z M 143.984375 25.5625 L 143.984375 35.394531 L 134.117188 35.394531 L 134.117188 25.5625 Z M 134.117188 128.785156 L 143.984375 128.785156 L 143.984375 138.617188 L 134.117188 138.617188 Z M 134.117188 123.871094 L 134.117188 114.039062 L 143.984375 114.039062 L 143.984375 123.871094 Z M 134.117188 109.125 L 134.117188 99.292969 L 143.984375 99.292969 L 143.984375 109.125 Z M 134.117188 94.378906 L 134.117188 84.546875 L 143.984375 84.546875 L 143.984375 94.378906 Z M 134.117188 79.632812 L 134.117188 69.800781 L 143.984375 69.800781 L 143.984375 79.632812 Z M 134.117188 64.886719 L 134.117188 55.054688 L 143.984375 55.054688 L 143.984375 64.886719 Z M 134.117188 50.140625 L 134.117188 40.308594 L 143.984375 40.308594 L 143.984375 50.140625 Z M 15.738281 138.617188 L 5.871094 138.617188 L 5.871094 128.785156 L 15.738281 128.785156 Z M 15.738281 123.871094 L 5.871094 123.871094 L 5.871094 114.039062 L 15.738281 114.039062 Z M 15.738281 109.125 L 5.871094 109.125 L 5.871094 99.292969 L 15.738281 99.292969 Z M 15.738281 94.378906 L 5.871094 94.378906 L 5.871094 84.546875 L 15.738281 84.546875 Z M 15.738281 79.632812 L 5.871094 79.632812 L 5.871094 69.800781 L 15.738281 69.800781 Z M 15.738281 64.886719 L 5.871094 64.886719 L 5.871094 55.054688 L 15.738281 55.054688 Z M 15.738281 50.140625 L 5.871094 50.140625 L 5.871094 40.308594 L 15.738281 40.308594 Z M 15.738281 25.5625 L 15.738281 35.394531 L 5.871094 35.394531 L 5.871094 25.5625 Z M 5.871094 143.535156 L 15.738281 143.535156 L 15.738281 153.363281 L 5.871094 153.363281 Z M 20.667969 25.5625 L 129.183594 25.5625 L 129.183594 153.363281 L 20.667969 153.363281 Z M 134.117188 153.363281 L 134.117188 143.535156 L 143.984375 143.535156 L 143.984375 153.363281 Z M 134.117188 153.363281 " fill-opacity="1" fill-rule="nonzero"/></g><path fill="#ffffff" d="M 88.566406 87.378906 L 68.835938 75.089844 C 68.457031 74.855469 68.042969 74.730469 67.59375 74.71875 C 67.144531 74.707031 66.726562 74.808594 66.332031 75.023438 C 65.941406 75.242188 65.628906 75.542969 65.402344 75.925781 C 65.175781 76.3125 65.0625 76.726562 65.0625 77.175781 L 65.0625 104.210938 C 65.0625 104.675781 65.183594 105.105469 65.429688 105.5 C 65.675781 105.898438 66.007812 106.199219 66.425781 106.40625 C 66.84375 106.617188 67.285156 106.699219 67.75 106.65625 C 68.214844 106.617188 68.632812 106.457031 69.007812 106.175781 L 88.738281 91.429688 C 88.898438 91.308594 89.042969 91.171875 89.167969 91.019531 C 89.296875 90.863281 89.402344 90.695312 89.488281 90.515625 C 89.574219 90.335938 89.636719 90.148438 89.675781 89.953125 C 89.714844 89.757812 89.730469 89.558594 89.722656 89.359375 C 89.714844 89.160156 89.679688 88.964844 89.625 88.773438 C 89.570312 88.582031 89.492188 88.398438 89.390625 88.226562 C 89.289062 88.054688 89.167969 87.894531 89.03125 87.753906 C 88.890625 87.609375 88.734375 87.484375 88.566406 87.378906 Z M 69.996094 99.292969 L 69.996094 81.597656 L 82.902344 89.636719 Z M 69.996094 99.292969 " fill-opacity="1" fill-rule="nonzero"/><path fill="#ffffff" d="M 74.925781 50.140625 C 73.632812 50.140625 72.34375 50.203125 71.058594 50.328125 C 69.773438 50.457031 68.496094 50.644531 67.230469 50.894531 C 65.960938 51.144531 64.710938 51.460938 63.472656 51.832031 C 62.234375 52.207031 61.019531 52.640625 59.828125 53.132812 C 58.632812 53.625 57.464844 54.175781 56.324219 54.78125 C 55.1875 55.390625 54.078125 56.050781 53.003906 56.765625 C 51.929688 57.480469 50.894531 58.25 49.894531 59.066406 C 48.894531 59.882812 47.9375 60.746094 47.023438 61.65625 C 46.109375 62.566406 45.242188 63.519531 44.425781 64.515625 C 43.605469 65.511719 42.835938 66.546875 42.117188 67.617188 C 41.398438 68.6875 40.734375 69.789062 40.125 70.925781 C 39.515625 72.0625 38.964844 73.226562 38.46875 74.414062 C 37.976562 75.605469 37.542969 76.816406 37.164062 78.046875 C 36.789062 79.28125 36.476562 80.527344 36.226562 81.792969 C 35.972656 83.054688 35.785156 84.328125 35.65625 85.609375 C 35.53125 86.890625 35.464844 88.175781 35.464844 89.464844 C 35.464844 90.75 35.53125 92.035156 35.65625 93.316406 C 35.785156 94.597656 35.972656 95.871094 36.226562 97.136719 C 36.476562 98.398438 36.789062 99.644531 37.164062 100.878906 C 37.542969 102.109375 37.976562 103.320312 38.46875 104.511719 C 38.964844 105.703125 39.515625 106.863281 40.125 108 C 40.734375 109.136719 41.398438 110.238281 42.117188 111.308594 C 42.835938 112.382812 43.605469 113.414062 44.425781 114.410156 C 45.242188 115.40625 46.109375 116.359375 47.023438 117.269531 C 47.9375 118.179688 48.894531 119.042969 49.894531 119.859375 C 50.894531 120.679688 51.929688 121.445312 53.003906 122.160156 C 54.078125 122.875 55.1875 123.535156 56.324219 124.144531 C 57.464844 124.75 58.632812 125.300781 59.828125 125.792969 C 61.019531 126.285156 62.234375 126.71875 63.472656 127.09375 C 64.710938 127.46875 65.960938 127.78125 67.230469 128.03125 C 68.496094 128.28125 69.773438 128.472656 71.058594 128.597656 C 72.34375 128.722656 73.632812 128.785156 74.925781 128.785156 C 76.21875 128.785156 77.507812 128.722656 78.792969 128.597656 C 80.082031 128.472656 81.359375 128.28125 82.625 128.03125 C 83.894531 127.78125 85.144531 127.46875 86.382812 127.09375 C 87.617188 126.71875 88.832031 126.285156 90.027344 125.792969 C 91.222656 125.300781 92.390625 124.75 93.527344 124.144531 C 94.667969 123.535156 95.777344 122.875 96.851562 122.160156 C 97.925781 121.445312 98.960938 120.679688 99.960938 119.859375 C 100.960938 119.042969 101.914062 118.179688 102.828125 117.269531 C 103.742188 116.359375 104.609375 115.40625 105.429688 114.410156 C 106.25 113.414062 107.019531 112.382812 107.738281 111.308594 C 108.457031 110.238281 109.117188 109.136719 109.726562 108 C 110.335938 106.863281 110.890625 105.703125 111.382812 104.511719 C 111.878906 103.320312 112.3125 102.109375 112.6875 100.878906 C 113.0625 99.644531 113.378906 98.398438 113.628906 97.136719 C 113.882812 95.871094 114.070312 94.597656 114.199219 93.316406 C 114.324219 92.035156 114.386719 90.75 114.386719 89.464844 C 114.386719 88.175781 114.320312 86.890625 114.191406 85.609375 C 114.066406 84.328125 113.875 83.058594 113.621094 81.792969 C 113.367188 80.53125 113.054688 79.285156 112.679688 78.054688 C 112.300781 76.820312 111.867188 75.609375 111.371094 74.421875 C 110.875 73.234375 110.324219 72.070312 109.714844 70.933594 C 109.105469 69.800781 108.441406 68.699219 107.722656 67.628906 C 107.003906 66.558594 106.234375 65.523438 105.417969 64.527344 C 104.597656 63.535156 103.730469 62.582031 102.816406 61.671875 C 101.902344 60.761719 100.945312 59.898438 99.949219 59.078125 C 98.949219 58.261719 97.914062 57.496094 96.839844 56.78125 C 95.765625 56.066406 94.660156 55.402344 93.519531 54.796875 C 92.378906 54.1875 91.214844 53.640625 90.019531 53.144531 C 88.828125 52.652344 87.613281 52.21875 86.375 51.84375 C 85.140625 51.46875 83.890625 51.15625 82.621094 50.902344 C 81.355469 50.652344 80.078125 50.460938 78.792969 50.332031 C 77.507812 50.207031 76.21875 50.140625 74.925781 50.140625 Z M 74.925781 123.871094 C 73.796875 123.871094 72.667969 123.816406 71.542969 123.707031 C 70.417969 123.59375 69.300781 123.429688 68.191406 123.210938 C 67.082031 122.992188 65.988281 122.71875 64.902344 122.390625 C 63.820312 122.0625 62.757812 121.683594 61.714844 121.253906 C 60.667969 120.820312 59.648438 120.339844 58.652344 119.808594 C 57.652344 119.277344 56.683594 118.699219 55.746094 118.074219 C 54.804688 117.445312 53.898438 116.777344 53.023438 116.0625 C 52.148438 115.347656 51.3125 114.589844 50.511719 113.792969 C 49.710938 112.996094 48.953125 112.164062 48.238281 111.292969 C 47.519531 110.421875 46.847656 109.515625 46.21875 108.578125 C 45.589844 107.640625 45.007812 106.675781 44.476562 105.683594 C 43.941406 104.6875 43.460938 103.671875 43.027344 102.628906 C 42.59375 101.589844 42.214844 100.53125 41.886719 99.453125 C 41.558594 98.375 41.285156 97.28125 41.0625 96.175781 C 40.84375 95.070312 40.675781 93.957031 40.566406 92.835938 C 40.453125 91.714844 40.398438 90.589844 40.398438 89.464844 C 40.398438 88.335938 40.453125 87.210938 40.566406 86.089844 C 40.675781 84.96875 40.84375 83.855469 41.0625 82.75 C 41.285156 81.644531 41.558594 80.554688 41.886719 79.476562 C 42.214844 78.398438 42.59375 77.335938 43.027344 76.296875 C 43.460938 75.253906 43.941406 74.238281 44.476562 73.242188 C 45.007812 72.25 45.589844 71.285156 46.21875 70.347656 C 46.847656 69.410156 47.519531 68.507812 48.238281 67.636719 C 48.953125 66.765625 49.710938 65.929688 50.511719 65.132812 C 51.3125 64.335938 52.148438 63.582031 53.023438 62.867188 C 53.898438 62.152344 54.804688 61.480469 55.746094 60.855469 C 56.683594 60.226562 57.652344 59.648438 58.652344 59.117188 C 59.648438 58.585938 60.667969 58.105469 61.714844 57.675781 C 62.757812 57.242188 63.820312 56.863281 64.902344 56.535156 C 65.988281 56.210938 67.082031 55.9375 68.191406 55.714844 C 69.300781 55.496094 70.417969 55.332031 71.542969 55.222656 C 72.667969 55.109375 73.796875 55.054688 74.925781 55.054688 C 76.058594 55.054688 77.1875 55.109375 78.3125 55.222656 C 79.4375 55.332031 80.554688 55.496094 81.664062 55.714844 C 82.773438 55.9375 83.867188 56.210938 84.949219 56.535156 C 86.03125 56.863281 87.09375 57.242188 88.140625 57.675781 C 89.183594 58.105469 90.207031 58.585938 91.203125 59.117188 C 92.199219 59.648438 93.167969 60.226562 94.109375 60.855469 C 95.050781 61.480469 95.957031 62.152344 96.832031 62.867188 C 97.707031 63.582031 98.542969 64.335938 99.34375 65.132812 C 100.140625 65.929688 100.898438 66.765625 101.617188 67.636719 C 102.335938 68.507812 103.007812 69.410156 103.636719 70.347656 C 104.265625 71.285156 104.84375 72.25 105.378906 73.242188 C 105.910156 74.238281 106.394531 75.253906 106.828125 76.296875 C 107.257812 77.335938 107.640625 78.398438 107.96875 79.476562 C 108.296875 80.554688 108.570312 81.644531 108.792969 82.75 C 109.011719 83.855469 109.179688 84.96875 109.289062 86.089844 C 109.398438 87.210938 109.453125 88.335938 109.453125 89.464844 C 109.453125 90.589844 109.398438 91.714844 109.285156 92.835938 C 109.171875 93.957031 109.007812 95.070312 108.785156 96.171875 C 108.5625 97.277344 108.289062 98.371094 107.960938 99.449219 C 107.632812 100.523438 107.25 101.585938 106.816406 102.625 C 106.382812 103.664062 105.898438 104.683594 105.367188 105.675781 C 104.832031 106.667969 104.253906 107.632812 103.625 108.570312 C 102.996094 109.507812 102.324219 110.410156 101.605469 111.28125 C 100.890625 112.152344 100.128906 112.984375 99.332031 113.78125 C 98.53125 114.578125 97.695312 115.335938 96.820312 116.050781 C 95.949219 116.765625 95.039062 117.433594 94.101562 118.0625 C 93.160156 118.6875 92.191406 119.265625 91.195312 119.796875 C 90.199219 120.328125 89.179688 120.8125 88.132812 121.242188 C 87.089844 121.675781 86.027344 122.054688 84.945312 122.382812 C 83.863281 122.710938 82.769531 122.984375 81.660156 123.203125 C 80.550781 123.425781 79.433594 123.589844 78.308594 123.703125 C 77.183594 123.8125 76.058594 123.871094 74.925781 123.871094 Z M 74.925781 123.871094 " fill-opacity="1" fill-rule="nonzero"/></svg>